<?xml version="1.0" standalone="no"?><!DOCTYPE svg PUBLIC "-//W3C//DTD SVG 1.1//EN" "http://www.w3.org/Graphics/SVG/1.1/DTD/svg11.dtd"><svg class="icon" height="512" viewBox="0 0 1024 1024" version="1.1" xmlns="http://www.w3.org/2000/svg"><path d="M127.741867 832.843733c-9.204267 0-18.462933-1.982933-27.1232-6.037333-22.494933-10.529067-36.866133-33.125333-36.866133-57.962667L63.752533 127.885867c0-24.8384 14.3712-47.4336 36.866133-57.963733 22.496-10.530133 49.051733-7.093333 68.125867 8.814933l384.248533 320.477867C567.573333 411.373867 576 429.3792 576 448.363733s-8.426667 36.989867-23.005867 49.1488L168.7456 817.991467C157.013333 827.777067 142.449067 832.843733 127.741867 832.843733zM191.7536 264.6016l0 367.522133 220.327467-183.761067L191.7536 264.6016zM767.752533 831.8848c-35.346133 0-64-28.653867-64-64L703.752533 127.761067c0-35.346133 28.653867-64 64-64s64 28.653867 64 64l0 640.123733C831.752533 803.230933 803.0976 831.8848 767.752533 831.8848z" /></svg>